<svg id="visual" viewBox="0 0 900 600" width="900" height="600" xmlns="http://www.w3.org/2000/svg" xmlns:xlink="http://www.w3.org/1999/xlink" version="1.1"><path d="M0 151L13.7 154C27.3 157 54.7 163 82 164C109.3 165 136.7 161 163.8 171C191 181 218 205 245.2 215C272.3 225 299.7 221 327 221C354.3 221 381.7 225 409 223C436.3 221 463.7 213 491 194C518.3 175 545.7 145 573 138C600.3 131 627.7 147 654.8 160C682 173 709 183 736.2 172C763.3 161 790.7 129 818 130C845.3 131 872.7 165 886.3 182L900 199L900 0L886.3 0C872.7 0 845.3 0 818 0C790.7 0 763.3 0 736.2 0C709 0 682 0 654.8 0C627.7 0 600.3 0 573 0C545.7 0 518.3 0 491 0C463.7 0 436.3 0 409 0C381.7 0 354.3 0 327 0C299.7 0 272.3 0 245.2 0C218 0 191 0 163.8 0C136.7 0 109.3 0 82 0C54.7 0 27.3 0 13.7 0L0 0Z" fill="#6198ff"></path><path d="M0 253L13.7 248C27.3 243 54.7 233 82 238C109.3 243 136.7 263 163.8 279C191 295 218 307 245.2 316C272.3 325 299.7 331 327 323C354.3 315 381.7 293 409 289C436.3 285 463.7 299 491 280C518.3 261 545.7 209 573 201C600.3 193 627.7 229 654.8 248C682 267 709 269 736.2 261C763.3 253 790.7 235 818 231C845.3 227 872.7 237 886.3 242L900 247L900 197L886.3 180C872.7 163 845.3 129 818 128C790.7 127 763.3 159 736.2 170C709 181 682 171 654.8 158C627.7 145 600.3 129 573 136C545.7 143 518.3 173 491 192C463.7 211 436.3 219 409 221C381.7 223 354.3 219 327 219C299.7 219 272.3 223 245.2 213C218 203 191 179 163.8 169C136.7 159 109.3 163 82 162C54.7 161 27.3 155 13.7 152L0 149Z" fill="#3c80ff"></path><path d="M0 445L13.7 432C27.3 419 54.7 393 82 394C109.3 395 136.7 423 163.8 437C191 451 218 451 245.2 450C272.3 449 299.7 447 327 444C354.3 441 381.7 437 409 433C436.3 429 463.7 425 491 418C518.3 411 545.7 401 573 397C600.3 393 627.7 395 654.8 398C682 401 709 405 736.2 414C763.3 423 790.7 437 818 443C845.3 449 872.7 447 886.3 446L900 445L900 245L886.3 240C872.7 235 845.3 225 818 229C790.7 233 763.3 251 736.2 259C709 267 682 265 654.8 246C627.7 227 600.3 191 573 199C545.7 207 518.3 259 491 278C463.7 297 436.3 283 409 287C381.7 291 354.3 313 327 321C299.7 329 272.3 323 245.2 314C218 305 191 293 163.8 277C136.7 261 109.3 241 82 236C54.7 231 27.3 241 13.7 246L0 251Z" fill="#0066ff"></path><path d="M0 529L13.7 525C27.3 521 54.7 513 82 518C109.3 523 136.7 541 163.8 549C191 557 218 555 245.2 550C272.3 545 299.7 537 327 537C354.3 537 381.7 545 409 551C436.3 557 463.7 561 491 555C518.3 549 545.7 533 573 522C600.3 511 627.7 505 654.8 506C682 507 709 515 736.2 522C763.3 529 790.7 535 818 542C845.3 549 872.7 557 886.3 561L900 565L900 443L886.3 444C872.7 445 845.3 447 818 441C790.7 435 763.3 421 736.2 412C709 403 682 399 654.8 396C627.7 393 600.3 391 573 395C545.7 399 518.3 409 491 416C463.7 423 436.3 427 409 431C381.7 435 354.3 439 327 442C299.7 445 272.3 447 245.2 448C218 449 191 449 163.8 435C136.7 421 109.3 393 82 392C54.7 391 27.3 417 13.7 430L0 443Z" fill="#0059dd"></path><path d="M0 601L13.7 601C27.3 601 54.7 601 82 601C109.3 601 136.7 601 163.8 601C191 601 218 601 245.2 601C272.3 601 299.7 601 327 601C354.3 601 381.7 601 409 601C436.3 601 463.7 601 491 601C518.3 601 545.7 601 573 601C600.3 601 627.7 601 654.8 601C682 601 709 601 736.2 601C763.3 601 790.7 601 818 601C845.3 601 872.7 601 886.3 601L900 601L900 563L886.3 559C872.7 555 845.3 547 818 540C790.7 533 763.3 527 736.2 520C709 513 682 505 654.8 504C627.7 503 600.3 509 573 520C545.7 531 518.3 547 491 553C463.7 559 436.3 555 409 549C381.7 543 354.3 535 327 535C299.7 535 272.3 543 245.2 548C218 553 191 555 163.8 547C136.7 539 109.3 521 82 516C54.7 511 27.3 519 13.7 523L0 527Z" fill="#004cbb"></path></svg>